<svg  xmlns="http://www.w3.org/2000/svg" xmlns:xlink="http://www.w3.org/1999/xlink" width="1140" height="300" viewBox="0 0 1164 324"><path transform="translate(0 100)" d="M9,-0L51,-0L51,-73L9,-73L9,-0ZM16,-5L46,-62.1L46,-5L16,-5ZM14,-10.9L14,-68L44,-68L14,-10.9Z"></path><path transform="translate(60 100)" d="M9,-0L51,-0L51,-73L9,-73L9,-0ZM16,-5L46,-62.1L46,-5L16,-5ZM14,-10.9L14,-68L44,-68L14,-10.9Z"></path><path transform="translate(120 100)" d="M9,-0L51,-0L51,-73L9,-73L9,-0ZM16,-5L46,-62.1L46,-5L16,-5ZM14,-10.9L14,-68L44,-68L14,-10.9Z"></path><path transform="translate(180 100)" d="M9,-0L51,-0L51,-73L9,-73L9,-0ZM16,-5L46,-62.1L46,-5L16,-5ZM14,-10.9L14,-68L44,-68L14,-10.9Z"></path><path transform="translate(240 100)" d="M9,-0L51,-0L51,-73L9,-73L9,-0ZM16,-5L46,-62.1L46,-5L16,-5ZM14,-10.9L14,-68L44,-68L14,-10.9Z"></path><path transform="translate(300 100)" d="M9,-0L51,-0L51,-73L9,-73L9,-0ZM16,-5L46,-62.1L46,-5L16,-5ZM14,-10.9L14,-68L44,-68L14,-10.9Z"></path><path transform="translate(0 200)" d="M25.5,-0L25.5,-64.8L5.5,-64.8L5.5,-73L54.5,-73L54.5,-64.8L34.5,-64.8L34.5,-0L25.5,-0Z"></path><path transform="translate(60 200)" d="M9.2,-0L9.2,-73L18.2,-73L18.2,-55L18.2,-44.5L20.1,-44.5L18.2,-42.4Q18.2,-48.9 22.1,-52.45Q26,-56 32.9,-56Q41.2,-56 46.1,-50.9Q51,-45.8 51,-37L51,-0L42,-0L42,-35.5Q42,-41.7 38.85,-45.05Q35.7,-48.4 30.3,-48.4Q24.7,-48.4 21.45,-44.9Q18.2,-41.4 18.2,-35L18.2,-0L9.2,-0Z"></path><path transform="translate(120 200)" d="M30,1Q23.5,1 18.65,-1.65Q13.8,-4.3 11.1,-9.25Q8.4,-14.2 8.4,-21L8.4,-34Q8.4,-40.9 11.1,-45.8Q13.8,-50.7 18.65,-53.35Q23.5,-56 30,-56Q36.5,-56 41.35,-53.4Q46.2,-50.8 48.9,-46.1Q51.6,-41.4 51.6,-35L51.6,-25.2L17.2,-25.2L17.2,-20Q17.2,-13.9 20.7,-10.35Q24.2,-6.8 30,-6.8Q35,-6.8 38.25,-8.75Q41.5,-10.7 42.2,-14L51.2,-14Q50.3,-7.1 44.5,-3.05Q38.7,1 30,1ZM42.8,-31.3L42.8,-35Q42.8,-41.5 39.45,-45.05Q36.1,-48.6 30,-48.6Q23.9,-48.6 20.55,-45.05Q17.2,-41.5 17.2,-35L17.2,-32.2L43.5,-32.2L42.8,-31.3Z"></path><path transform="translate(180 200)" d=""></path><path transform="translate(240 200)" d="M9.2,-0L9.2,-73L32.7,-73Q39.5,-73 44.5,-70.35Q49.5,-67.7 52.25,-62.9Q55,-58.1 55,-51.5Q55,-45 52.25,-40.15Q49.5,-35.3 44.5,-32.65Q39.5,-30 32.7,-30L18.2,-30L18.2,-0L9.2,-0ZM18.2,-38.1L32.7,-38.1Q38.6,-38.1 42.15,-41.75Q45.7,-45.4 45.7,-51.5Q45.7,-57.7 42.15,-61.3Q38.6,-64.9 32.7,-64.9L18.2,-64.9L18.2,-38.1Z"></path><path transform="translate(300 200)" d="M11.2,-0L11.2,-55L20.2,-55L20.2,-44.5L22.1,-44.5L20.2,-42.1Q20.2,-48.5 24.15,-52.25Q28.1,-56 35.1,-56Q43.7,-56 48.35,-50.85Q53,-45.7 53,-36.2L53,-31.5L44,-31.5L44,-36.2Q44,-42.3 41,-45.25Q38,-48.2 32.3,-48.2Q26.4,-48.2 23.3,-44.8Q20.2,-41.4 20.2,-35L20.2,-0L11.2,-0Z"></path><path transform="translate(360 200)" d="M30,0.8Q23.4,0.8 18.55,-1.8Q13.7,-4.4 11.05,-9.35Q8.4,-14.3 8.4,-21.2L8.4,-33.8Q8.4,-40.8 11.05,-45.7Q13.7,-50.6 18.55,-53.2Q23.4,-55.8 30,-55.8Q36.7,-55.8 41.5,-53.2Q46.3,-50.6 48.95,-45.7Q51.6,-40.8 51.6,-33.8L51.6,-21.2Q51.6,-14.3 48.95,-9.35Q46.3,-4.4 41.45,-1.8Q36.6,0.8 30,0.8ZM30,-7.2Q35.9,-7.2 39.25,-10.5Q42.6,-13.8 42.6,-20.2L42.6,-34.8Q42.6,-41.2 39.25,-44.5Q35.9,-47.8 30,-47.8Q24.2,-47.8 20.8,-44.5Q17.4,-41.2 17.4,-34.8L17.4,-20.2Q17.4,-13.8 20.8,-10.5Q24.2,-7.2 30,-7.2Z"></path><path transform="translate(420 200)" d="M9,18L9,9.8L21.4,9.8Q27.6,9.8 31.05,6.4Q34.5,3 34.5,-3.1L34.5,-46.8L8.5,-46.8L8.5,-55L43.5,-55L43.5,-3.1Q43.5,6.6 37.5,12.3Q31.5,18 21.4,18L9,18ZM38,-64.9Q34.7,-64.9 32.8,-66.6Q30.9,-68.3 30.9,-71.2Q30.9,-74.2 32.8,-75.95Q34.7,-77.7 38,-77.7Q41.3,-77.7 43.2,-75.95Q45.1,-74.2 45.1,-71.2Q45.1,-68.3 43.2,-66.6Q41.3,-64.9 38,-64.9Z"></path><path transform="translate(480 200)" d="M30,1Q23.5,1 18.65,-1.65Q13.8,-4.3 11.1,-9.25Q8.4,-14.2 8.4,-21L8.4,-34Q8.4,-40.9 11.1,-45.8Q13.8,-50.7 18.65,-53.35Q23.5,-56 30,-56Q36.5,-56 41.35,-53.4Q46.2,-50.8 48.9,-46.1Q51.6,-41.4 51.6,-35L51.6,-25.2L17.2,-25.2L17.2,-20Q17.2,-13.9 20.7,-10.35Q24.2,-6.8 30,-6.8Q35,-6.8 38.25,-8.75Q41.5,-10.7 42.2,-14L51.2,-14Q50.3,-7.1 44.5,-3.05Q38.7,1 30,1ZM42.8,-31.3L42.8,-35Q42.8,-41.5 39.45,-45.05Q36.1,-48.6 30,-48.6Q23.9,-48.6 20.55,-45.05Q17.2,-41.5 17.2,-35L17.2,-32.2L43.5,-32.2L42.8,-31.3Z"></path><path transform="translate(540 200)" d="M30.8,1Q24.2,1 19.25,-1.5Q14.3,-4 11.55,-8.75Q8.8,-13.5 8.8,-20L8.8,-35Q8.8,-41.6 11.55,-46.3Q14.3,-51 19.25,-53.5Q24.2,-56 30.8,-56Q40.3,-56 46.15,-50.9Q52,-45.8 52.3,-37L43.3,-37Q43,-42.3 39.7,-45.15Q36.4,-48 30.8,-48Q24.9,-48 21.35,-44.65Q17.8,-41.3 17.8,-35.1L17.8,-20Q17.8,-13.8 21.35,-10.4Q24.9,-7 30.8,-7Q36.4,-7 39.7,-9.9Q43,-12.8 43.3,-18L52.3,-18Q52,-9.2 46.15,-4.1Q40.3,1 30.8,1Z"></path><path transform="translate(600 200)" d="M35.5,-0Q28.7,-0 24.6,-3.95Q20.5,-7.9 20.5,-14.5L20.5,-46.8L4.7,-46.8L4.7,-55L20.5,-55L20.5,-70.5L29.5,-70.5L29.5,-55L52,-55L52,-46.8L29.5,-46.8L29.5,-14.5Q29.5,-11.7 31.15,-9.95Q32.8,-8.2 35.5,-8.2L51.5,-8.2L51.5,-0L35.5,-0Z"></path><path transform="translate(660 200)" d=""></path><path transform="translate(720 200)" d="M9.5,-0L9.5,-73L52.5,-73L52.5,-64.8L18.3,-64.8L18.3,-40.6L49.9,-40.6L49.9,-32.4L18.5,-32.4L18.5,-0L9.5,-0Z"></path><path transform="translate(780 200)" d="M30,0.8Q23.4,0.8 18.55,-1.8Q13.7,-4.4 11.05,-9.35Q8.4,-14.3 8.4,-21.2L8.4,-33.8Q8.4,-40.8 11.05,-45.7Q13.7,-50.6 18.55,-53.2Q23.4,-55.8 30,-55.8Q36.7,-55.8 41.5,-53.2Q46.3,-50.6 48.95,-45.7Q51.6,-40.8 51.6,-33.8L51.6,-21.2Q51.6,-14.3 48.95,-9.35Q46.3,-4.4 41.45,-1.8Q36.6,0.8 30,0.8ZM30,-7.2Q35.9,-7.2 39.25,-10.5Q42.6,-13.8 42.6,-20.2L42.6,-34.8Q42.6,-41.2 39.25,-44.5Q35.9,-47.8 30,-47.8Q24.2,-47.8 20.8,-44.5Q17.4,-41.2 17.4,-34.8L17.4,-20.2Q17.4,-13.8 20.8,-10.5Q24.2,-7.2 30,-7.2Z"></path><path transform="translate(840 200)" d="M11.2,-0L11.2,-55L20.2,-55L20.2,-44.5L22.1,-44.5L20.2,-42.1Q20.2,-48.5 24.15,-52.25Q28.1,-56 35.1,-56Q43.7,-56 48.35,-50.85Q53,-45.7 53,-36.2L53,-31.5L44,-31.5L44,-36.2Q44,-42.3 41,-45.25Q38,-48.2 32.3,-48.2Q26.4,-48.2 23.3,-44.8Q20.2,-41.4 20.2,-35L20.2,-0L11.2,-0Z"></path><path transform="translate(900 200)" d=""></path><path transform="translate(960 200)" d="M10.7,-0L2,-73L10.3,-73L16,-19Q16.3,-16.8 16.45,-14.45Q16.6,-12.1 16.75,-10Q16.9,-7.9 16.9,-6.5Q17.1,-7.9 17.25,-10Q17.4,-12.1 17.65,-14.45Q17.9,-16.8 18.2,-19L25.4,-73L35.1,-73L41.7,-19Q42,-16.8 42.25,-14.45Q42.5,-12.1 42.75,-10Q43,-7.9 43.1,-6.5Q43.2,-7.9 43.35,-10Q43.5,-12.1 43.75,-14.45Q44,-16.8 44.2,-19L50.1,-73L58,-73L49.1,-0L37.8,-0L31.2,-55Q31,-57.3 30.8,-59.5Q30.6,-61.7 30.45,-63.6Q30.3,-65.5 30.2,-66.7Q30.1,-65.5 29.95,-63.6Q29.8,-61.7 29.6,-59.5Q29.4,-57.3 29.1,-55L22,-0L10.7,-0Z"></path><path transform="translate(1020 200)" d="M30,1Q23.5,1 18.65,-1.65Q13.8,-4.3 11.1,-9.25Q8.4,-14.2 8.4,-21L8.4,-34Q8.4,-40.9 11.1,-45.8Q13.8,-50.7 18.65,-53.35Q23.5,-56 30,-56Q36.5,-56 41.35,-53.4Q46.2,-50.8 48.9,-46.1Q51.6,-41.4 51.6,-35L51.6,-25.2L17.2,-25.2L17.2,-20Q17.2,-13.9 20.7,-10.35Q24.2,-6.8 30,-6.8Q35,-6.8 38.25,-8.75Q41.5,-10.7 42.2,-14L51.2,-14Q50.3,-7.1 44.5,-3.05Q38.7,1 30,1ZM42.8,-31.3L42.8,-35Q42.8,-41.5 39.45,-45.05Q36.1,-48.6 30,-48.6Q23.9,-48.6 20.55,-45.05Q17.2,-41.5 17.2,-35L17.2,-32.2L43.5,-32.2L42.8,-31.3Z"></path><path transform="translate(1080 200)" d="M33.2,1Q26.4,1 22.3,-2.65Q18.2,-6.3 18.2,-12.6L20,-10.5L18.2,-10.5L18.2,-0L9.2,-0L9.2,-73L18.2,-73L18.2,-57L18,-44.5L20,-44.5L18,-42.4Q18,-48.6 22.25,-52.3Q26.5,-56 33.2,-56Q41.5,-56 46.4,-50.5Q51.3,-45 51.3,-35.5L51.3,-19.4Q51.3,-10 46.4,-4.5Q41.5,1 33.2,1ZM30.2,-6.8Q35.9,-6.8 39.1,-9.8Q42.3,-12.8 42.3,-19.5L42.3,-35.5Q42.3,-42.3 39.1,-45.25Q35.9,-48.2 30.2,-48.2Q24.7,-48.2 21.45,-44.7Q18.2,-41.2 18.2,-35L18.2,-20Q18.2,-13.8 21.45,-10.3Q24.7,-6.8 30.2,-6.8Z"></path></svg>