<?xml version="1.0" standalone="no"?><!DOCTYPE svg PUBLIC "-//W3C//DTD SVG 1.1//EN" "http://www.w3.org/Graphics/SVG/1.1/DTD/svg11.dtd"><svg t="1723322071467" class="icon cycling-icon" viewBox="0 0 1154 1024" version="1.1" xmlns="http://www.w3.org/2000/svg" p-id="1883" xmlns:xlink="http://www.w3.org/1999/xlink" width="225.390625" height="200"><path d="M1149.530602 700.13473a106.926654 106.926654 0 0 0-76.257768-57.930116 33.662095 33.662095 0 0 0-5.433827-0.690741c-234.851824-8.749382-334.456626-345.830823-335.423663-349.284526a32.234564 32.234564 0 0 0-15.380492-19.110491 31.912218 31.912218 0 0 0-24.360121-2.578765c-96.703692 28.642713-165.777758 25.925799-205.334172-7.966542a159.883438 159.883438 0 0 1-39.464317-127.326528 32.004317 32.004317 0 0 0-30.484687-36.286909c-178.993929-5.525925-297.801322 196.953186-313.918605 226.332688l-53.647524 50.654315a106.235913 106.235913 0 0 0 2.855061 156.936278l141.97023 124.333318a126.543688 126.543688 0 0 0 59.265549 29.057157 296.51194 296.51194 0 0 1 192.670594 131.056527c0.73679 1.243333 1.47358 2.440617 2.302469 3.637901a490.471916 490.471916 0 0 0 234.483428 163.014795 466.434141 466.434141 0 0 0 102.920358 12.018888 400.629581 400.629581 0 0 0 344.54144-209.064173 141.325539 141.325539 0 0 0 16.30148-28.82691 77.731349 77.731349 0 0 0 2.394567-57.976166z m-580.958942 34.03049l65.80456 53.877771a272.428115 272.428115 0 0 0 172.132572 61.38382h2.532715a926.42137 926.42137 0 0 0 217.813554-24.728515 322.069344 322.069344 0 0 1-327.226874 97.854926 435.765256 435.765256 0 0 1-198.012322-137.227144 357.895759 357.895759 0 0 0-235.726761-161.449116 62.627153 62.627153 0 0 1-29.241355-14.367406l-141.97023-124.333318a42.273328 42.273328 0 0 1-0.967036-62.581104l36.517156-34.583082 74.830238 64.469128a774.734721 774.734721 0 0 0 127.833071 88.506903 613.101408 613.101408 0 0 1 147.358006 107.985789 840.262985 840.262985 0 0 0 88.322706 85.191348z m106.235913 4.604938l-65.758511-53.877771a778.234474 778.234474 0 0 1-81.783693-79.15888 672.873499 672.873499 0 0 0-163.383191-120.787516 705.108063 705.108063 0 0 1-117.241714-81.185052L170.152449 338.094527c27.629626-44.483698 107.156901-157.120475 212.978369-173.375905a200.130593 200.130593 0 0 0 62.396906 146.206773c52.127895 44.990241 131.332824 54.70666 235.358367 29.103206 33.201601 93.019742 147.358007 354.580204 380.229707 365.033413 11.83469 3.131358 26.156046 10.959752 28.642713 17.72901a10.038764 10.038764 0 0 1 0 5.019382c-45.358637 36.056662-144.963439 56.594685-281.453794 57.884067a203.123803 203.123803 0 0 1-133.497144-47.062463z" fill="#000000" p-id="1884"></path><path d="M708.653865 408.780321a31.635922 31.635922 0 0 0-19.801232-14.551603 31.03728 31.03728 0 0 0-23.991726 3.637901l-57.791968 34.767279a31.912218 31.912218 0 0 0 32.925305 54.706661l57.791968-34.76728a31.958268 31.958268 0 0 0 10.867653-43.792958z" fill="#000000" p-id="1885"></path><path d="M732.783739 508.523272a32.234564 32.234564 0 0 0-24.129874 3.73l-25.971849 15.840985a31.912218 31.912218 0 0 0 33.247651 54.522463l25.971848-15.840986a31.912218 31.912218 0 0 0 10.591357-43.839007 31.543823 31.543823 0 0 0-19.709133-14.413455z" fill="#000000" p-id="1886"></path><path d="M59.495795 63.824437h212.471827a31.912218 31.912218 0 1 0 0-63.824437H59.495795a31.912218 31.912218 0 1 0 0 63.824437z" fill="#000000" p-id="1887"></path><path d="M360.382426 63.824437h27.629626a31.912218 31.912218 0 1 0 0-63.824437h-27.629626a31.912218 31.912218 0 1 0 0 63.824437z" fill="#000000" p-id="1888"></path><path d="M276.342312 883.365202a31.958268 31.958268 0 0 0-31.958267-31.912218H31.958268a31.912218 31.912218 0 1 0 0 63.824437h212.425777a31.958268 31.958268 0 0 0 31.958267-31.912219z" fill="#000000" p-id="1889"></path><path d="M360.382426 851.452984h-27.629627a31.912218 31.912218 0 1 0 0 63.824437h27.629627a31.912218 31.912218 0 1 0 0-63.824437z" fill="#000000" p-id="1890"></path><path d="M350.619958 960.083464H138.148131a31.958268 31.958268 0 0 0 0 63.870487h212.471827a31.958268 31.958268 0 1 0 0-63.870487z" fill="#000000" p-id="1891"></path><path d="M466.572289 960.083464h-27.629626a31.958268 31.958268 0 1 0 0 63.870487h27.629626a31.958268 31.958268 0 1 0 0-63.870487z" fill="#000000" p-id="1892"></path></svg>